{
  "accessors": [
    {
      "bufferView": 2,
      "componentType": 5126,
      "count": 65532,
      "max": [
        5.859243869781494,
        -3.003748893737793,
        13.688005447387695
      ],
      "min": [
        -6.643019199371338,
        -19.2262020111084,
        -3.3160669803619385
      ],
      "type": "VEC3"
    },
    {
      "bufferView": 2,
      "byteOffset": 786384,
      "componentType": 5126,
      "count": 65532,
      "max": [
        0.997301459312439,
        0.9999573826789856,
        0.9988803863525391
      ],
      "min": [
        -0.999997615814209,
        -0.999991238117218,
        -0.9998748898506165
      ],
      "type": "VEC3"
    },
    {
      "bufferView": 1,
      "componentType": 5126,
      "count": 65532,
      "max": [
        0.9977539777755737,
        0.9997289776802063
      ],
      "min": [
        0.0002969999914057553,
        0.0013089999556541443
      ],
      "type": "VEC2"
    },
    {
      "bufferView": 0,
      "componentType": 5125,
      "count": 301509,
      "type": "SCALAR"
    },
    {
      "bufferView": 2,
      "byteOffset": 1572768,
      "componentType": 5126,
      "count": 65532,
      "max": [
        6.495245933532715,
        -2.472342014312744,
        13.773750305175781
      ],
      "min": [
        -6.703824043273926,
        -19.256317138671875,
        -3.9918758869171143
      ],
      "type": "VEC3"
    },
    {
      "bufferView": 2,
      "byteOffset": 2359152,
      "componentType": 5126,
      "count": 65532,
      "max": [
        0.996208906173706,
        0.9998287558555603,
        0.9978157877922058
      ],
      "min": [
        -0.9999983310699463,
        -0.9999884963035583,
        -0.9999602437019348
      ],
      "type": "VEC3"
    },
    {
      "bufferView": 1,
      "byteOffset": 524256,
      "componentType": 5126,
      "count": 65532,
      "max": [
        0.9969940185546875,
        0.9997230172157288
      ],
      "min": [
        0.00027799999224953353,
        0.0019809999503195286
      ],
      "type": "VEC2"
    },
    {
      "bufferView": 0,
      "byteOffset": 1206036,
      "componentType": 5125,
      "count": 292413,
      "type": "SCALAR"
    },
    {
      "bufferView": 2,
      "byteOffset": 3145536,
      "componentType": 5126,
      "count": 65533,
      "max": [
        6.504685878753662,
        -2.6031699180603027,
        13.795801162719727
      ],
      "min": [
        -6.693587779998779,
        -19.40736198425293,
        -4.06904411315918
      ],
      "type": "VEC3"
    },
    {
      "bufferView": 2,
      "byteOffset": 3931932,
      "componentType": 5126,
      "count": 65533,
      "max": [
        0.9993292093276978,
        0.9999849796295166,
        0.998174786567688
      ],
      "min": [
        -0.9999918937683105,
        -0.9999565482139587,
        -0.9999245405197144
      ],
      "type": "VEC3"
    },
    {
      "bufferView": 1,
      "byteOffset": 1048512,
      "componentType": 5126,
      "count": 65533,
      "max": [
        0.9987900257110596,
        0.9997310042381287
      ],
      "min": [
        0.00026699999580159783,
        0.00171999994199723
      ],
      "type": "VEC2"
    },
    {
      "bufferView": 0,
      "byteOffset": 2375688,
      "componentType": 5125,
      "count": 264114,
      "type": "SCALAR"
    },
    {
      "bufferView": 2,
      "byteOffset": 4718328,
      "componentType": 5126,
      "count": 64841,
      "max": [
        6.483346939086914,
        -2.4728360176086426,
        13.788314819335938
      ],
      "min": [
        -6.703824043273926,
        -19.412731170654297,
        -5.3988471031188965
      ],
      "type": "VEC3"
    },
    {
      "bufferView": 2,
      "byteOffset": 5496420,
      "componentType": 5126,
      "count": 64841,
      "max": [
        0.9993292093276978,
        0.9999827742576599,
        0.999779224395752
      ],
      "min": [
        -0.9999951124191284,
        -0.999991238117218,
        -0.9998199939727783
      ],
      "type": "VEC3"
    },
    {
      "bufferView": 1,
      "byteOffset": 1572776,
      "componentType": 5126,
      "count": 64841,
      "max": [
        0.9978539943695068,
        0.9997230172157288
      ],
      "min": [
        0.0002699999895412475,
        0.0015950000379234552
      ],
      "type": "VEC2"
    },
    {
      "bufferView": 0,
      "byteOffset": 3432144,
      "componentType": 5125,
      "count": 110016,
      "type": "SCALAR"
    },
    {
      "bufferView": 2,
      "byteOffset": 6274512,
      "componentType": 5126,
      "count": 65532,
      "max": [
        6.492275238037109,
        -2.5134150981903076,
        13.642984390258789
      ],
      "min": [
        -6.326929092407227,
        -18.90359115600586,
        -3.3228840827941895
      ],
      "type": "VEC3"
    },
    {
      "bufferView": 2,
      "byteOffset": 7060896,
      "componentType": 5126,
      "count": 65532,
      "max": [
        0.9999576210975647,
        0.9998940229415894,
        0.9991238713264465
      ],
      "min": [
        -0.9999637603759766,
        -0.9999884963035583,
        -0.9999744892120361
      ],
      "type": "VEC3"
    },
    {
      "bufferView": 1,
      "byteOffset": 2091504,
      "componentType": 5126,
      "count": 65532,
      "max": [
        1.997817039489746,
        0.9997310042381287
      ],
      "min": [
        1.0002729892730713,
        0.0005489999894052744
      ],
      "type": "VEC2"
    },
    {
      "bufferView": 0,
      "byteOffset": 3872208,
      "componentType": 5125,
      "count": 302355,
      "type": "SCALAR"
    },
    {
      "bufferView": 2,
      "byteOffset": 7847280,
      "componentType": 5126,
      "count": 65533,
      "max": [
        6.504685878753662,
        -2.532365083694458,
        13.792490005493164
      ],
      "min": [
        -6.671257019042969,
        -19.390268325805664,
        -4.067921161651611
      ],
      "type": "VEC3"
    },
    {
      "bufferView": 2,
      "byteOffset": 8633676,
      "componentType": 5126,
      "count": 65533,
      "max": [
        0.997362494468689,
        0.9998078942298889,
        0.9984816312789917
      ],
      "min": [
        -0.9999918937683105,
        -0.9999614953994751,
        -0.9999517798423767
      ],
      "type": "VEC3"
    },
    {
      "bufferView": 1,
      "byteOffset": 2615760,
      "componentType": 5126,
      "count": 65533,
      "max": [
        1.9951339960098267,
        0.9997199773788452
      ],
      "min": [
        1.0002800226211548,
        0.0007089999853633344
      ],
      "type": "VEC2"
    },
    {
      "bufferView": 0,
      "byteOffset": 5081628,
      "componentType": 5125,
      "count": 269154,
      "type": "SCALAR"
    },
    {
      "bufferView": 2,
      "byteOffset": 9420072,
      "componentType": 5126,
      "count": 65532,
      "max": [
        6.504685878753662,
        -2.4787020683288574,
        13.767901420593262
      ],
      "min": [
        -6.693587779998779,
        -19.41115951538086,
        -4.33649206161499
      ],
      "type": "VEC3"
    },
    {
      "bufferView": 2,
      "byteOffset": 10206456,
      "componentType": 5126,
      "count": 65532,
      "max": [
        0.9999576210975647,
        0.9999521374702454,
        0.999779224395752
      ],
      "min": [
        -0.9999951124191284,
        -0.9999884963035583,
        -0.9999717473983765
      ],
      "type": "VEC3"
    },
    {
      "bufferView": 1,
      "byteOffset": 3140024,
      "componentType": 5126,
      "count": 65532,
      "max": [
        1.9982659816741943,
        0.9997329711914063
      ],
      "min": [
        1.0002700090408325,
        0.00133500003721565
      ],
      "type": "VEC2"
    },
    {
      "bufferView": 0,
      "byteOffset": 6158244,
      "componentType": 5125,
      "count": 117840,
      "type": "SCALAR"
    },
    {
      "bufferView": 2,
      "byteOffset": 10992840,
      "componentType": 5126,
      "count": 23967,
      "max": [
        6.395501136779785,
        -2.5346949100494385,
        13.630249977111816
      ],
      "min": [
        -6.606354236602783,
        -19.40946388244629,
        -4.05530309677124
      ],
      "type": "VEC3"
    },
    {
      "bufferView": 2,
      "byteOffset": 11280444,
      "componentType": 5126,
      "count": 23967,
      "max": [
        0.9999328851699829,
        0.9999737739562988,
        0.9997877478599548
      ],
      "min": [
        -0.9999251365661621,
        -0.9999125003814697,
        -0.9996948838233948
      ],
      "type": "VEC3"
    },
    {
      "bufferView": 1,
      "byteOffset": 3664280,
      "componentType": 5126,
      "count": 23967,
      "max": [
        1.9966119527816772,
        0.9997249841690063
      ],
      "min": [
        1.0002670288085938,
        0.004695999901741743
      ],
      "type": "VEC2"
    },
    {
      "bufferView": 0,
      "byteOffset": 6629604,
      "componentType": 5125,
      "count": 31674,
      "type": "SCALAR"
    }
  ],
  "asset": {
    "extras": {
      "author": "Juha M (https://sketchfab.com/cosmical)",
      "license": "CC-BY-4.0 (http://creativecommons.org/licenses/by/4.0/)",
      "source": "https://sketchfab.com/3d-models/maakotka-aquila-chrysaetos-96c413be2a2a4efeb9ded7ff378a0211",
      "title": "Maakotka (Aquila chrysaetos)"
    },
    "generator": "Sketchfab-12.68.0",
    "version": "2.0"
  },
  "bufferViews": [
    {
      "buffer": 0,
      "byteLength": 6756300,
      "name": "floatBufferViews",
      "target": 34963
    },
    {
      "buffer": 0,
      "byteLength": 3856016,
      "byteOffset": 6756300,
      "byteStride": 8,
      "name": "floatBufferViews",
      "target": 34962
    },
    {
      "buffer": 0,
      "byteLength": 11568048,
      "byteOffset": 10612316,
      "byteStride": 12,
      "name": "floatBufferViews",
      "target": 34962
    }
  ],
  "buffers": [
    {
      "byteLength": 22180364,
      "uri": "scene.bin"
    }
  ],
  "extensionsUsed": [
    "KHR_materials_unlit"
  ],
  "images": [
    {
      "uri": "textures/maakotka_tex0_baseColor.jpeg"
    },
    {
      "uri": "textures/maakotka_tex1_baseColor.jpeg"
    }
  ],
  "materials": [
    {
      "doubleSided": true,
      "extensions": {
        "KHR_materials_unlit": {}
      },
      "name": "maakotka_tex0",
      "pbrMetallicRoughness": {
        "baseColorTexture": {
          "index": 0
        },
        "metallicFactor": 0.0
      }
    },
    {
      "doubleSided": true,
      "extensions": {
        "KHR_materials_unlit": {}
      },
      "name": "maakotka_tex1",
      "pbrMetallicRoughness": {
        "baseColorTexture": {
          "index": 1
        },
        "metallicFactor": 0.0
      }
    }
  ],
  "meshes": [
    {
      "name": "Object_0",
      "primitives": [
        {
          "attributes": {
            "NORMAL": 1,
            "POSITION": 0,
            "TEXCOORD_0": 2
          },
          "indices": 3,
          "material": 0,
          "mode": 4
        }
      ]
    },
    {
      "name": "Object_1",
      "primitives": [
        {
          "attributes": {
            "NORMAL": 5,
            "POSITION": 4,
            "TEXCOORD_0": 6
          },
          "indices": 7,
          "material": 0,
          "mode": 4
        }
      ]
    },
    {
      "name": "Object_2",
      "primitives": [
        {
          "attributes": {
            "NORMAL": 9,
            "POSITION": 8,
            "TEXCOORD_0": 10
          },
          "indices": 11,
          "material": 0,
          "mode": 4
        }
      ]
    },
    {
      "name": "Object_3",
      "primitives": [
        {
          "attributes": {
            "NORMAL": 13,
            "POSITION": 12,
            "TEXCOORD_0": 14
          },
          "indices": 15,
          "material": 0,
          "mode": 4
        }
      ]
    },
    {
      "name": "Object_4",
      "primitives": [
        {
          "attributes": {
            "NORMAL": 17,
            "POSITION": 16,
            "TEXCOORD_0": 18
          },
          "indices": 19,
          "material": 1,
          "mode": 4
        }
      ]
    },
    {
      "name": "Object_5",
      "primitives": [
        {
          "attributes": {
            "NORMAL": 21,
            "POSITION": 20,
            "TEXCOORD_0": 22
          },
          "indices": 23,
          "material": 1,
          "mode": 4
        }
      ]
    },
    {
      "name": "Object_6",
      "primitives": [
        {
          "attributes": {
            "NORMAL": 25,
            "POSITION": 24,
            "TEXCOORD_0": 26
          },
          "indices": 27,
          "material": 1,
          "mode": 4
        }
      ]
    },
    {
      "name": "Object_7",
      "primitives": [
        {
          "attributes": {
            "NORMAL": 29,
            "POSITION": 28,
            "TEXCOORD_0": 30
          },
          "indices": 31,
          "material": 1,
          "mode": 4
        }
      ]
    }
  ],
  "nodes": [
    {
      "children": [
        1
      ],
      "matrix": [
        -0.05536727073068315,
        -0.003222077951195826,
        -0.036739390059756794,
        0.0,
        0.009457904842415932,
        -0.06529579178528389,
        -0.00852682247786131,
        0.0,
        -0.035647057653236836,
        -0.012319776610437828,
        0.054801547892983304,
        0.0,
        3.6229612827301025,
        -5.769010543823244,
        6.026447296142577,
        1.0
      ],
      "name": "Sketchfab_model"
    },
    {
      "children": [
        2,
        3,
        4,
        5,
        6,
        7,
        8,
        9
      ],
      "name": "maakotka.obj.cleaner.materialmerger.gles"
    },
    {
      "mesh": 0,
      "name": "Object_2"
    },
    {
      "mesh": 1,
      "name": "Object_3"
    },
    {
      "mesh": 2,
      "name": "Object_4"
    },
    {
      "mesh": 3,
      "name": "Object_5"
    },
    {
      "mesh": 4,
      "name": "Object_6"
    },
    {
      "mesh": 5,
      "name": "Object_7"
    },
    {
      "mesh": 6,
      "name": "Object_8"
    },
    {
      "mesh": 7,
      "name": "Object_9"
    }
  ],
  "samplers": [
    {
      "magFilter": 9729,
      "minFilter": 9987,
      "wrapS": 10497,
      "wrapT": 10497
    }
  ],
  "scene": 0,
  "scenes": [
    {
      "name": "Sketchfab_Scene",
      "nodes": [
        0
      ]
    }
  ],
  "textures": [
    {
      "sampler": 0,
      "source": 0
    },
    {
      "sampler": 0,
      "source": 1
    }
  ]
}
